# xmcd
#
# Track frame offsets: 
#        150
#        11534
#        24349
#        35867
#        46966
#        69750
#        88918
#        104556
#        120629
#        136877
#        154965
#        177344
#        199768
#        222990
#        241216
#
# Disc length: 3423 seconds
#
# Revision: 1
# Processed by: cddbd v1.5.2PL0 Copyright (c) Steve Scherf et al.
# Submitted via: ExactAudioCopy v0.95a4
#
DISCID=cf0d5d0f
DTITLE=Lightnin Hopkins - Rarities And Gems [CD1]
DYEAR=2013
DGENRE=Blues
TTITLE0=Lightnin' Jump
TTITLE1=Latte In The Evening
TTITLE2=Leavin' Blues
TTITLE3=Moanin' Blues
TTITLE4=Get Off My Toe
TTITLE5=75 Highway
TTITLE6=Worrying My Mind
TTITLE7=Go Down Old Hannah
TTITLE8=How Long Has The Train Been Gone
TTITLE9=Black Mare Trot
TTITLE10=Houston Bound
TTITLE11=Awful Dream
TTITLE12=Baby I Don't Care
TTITLE13=My Money Is What You Want
TTITLE14=Walk Me
EXTD=YEAR: 2013
EXTT0=
EXTT1=
EXTT2=
EXTT3=
EXTT4=
EXTT5=
EXTT6=
EXTT7=
EXTT8=
EXTT9=
EXTT10=
EXTT11=
EXTT12=
EXTT13=
EXTT14=
PLAYORDER=
